<svg width="269" height="56" viewBox="0 0 269 56" fill="none" xmlns="http://www.w3.org/2000/svg">
<g clip-path="url(#clip0_18_18)">
<path d="M20.3169 0H31.3315C34.0287 0 35.9528 2.61489 35.1504 5.18995L20.2694 52.9475C19.7486 54.619 18.2013 55.7576 16.4505 55.7576H5.436C2.73882 55.7576 0.814725 53.1427 1.6171 50.5676L16.498 2.81005C17.0189 1.13856 18.5662 0 20.3169 0Z" fill="#EF305E"/>
<g filter="url(#filter0_d_18_18)">
<path d="M67.6401 37.8L56.9159 3.44919C56.2753 1.39729 54.3753 0 52.2257 0C49.6093 0 47.4518 2.05036 47.3186 4.66341L46.0103 30.3392C45.9639 31.2511 46.0739 32.1643 46.3356 33.0391L52.1572 52.4999C52.6638 54.1934 54.2218 55.3535 55.9894 55.3535H61.4009C63.1419 55.3535 64.683 54.2274 65.2119 52.5686L67.6183 45.0214C68.3668 42.6736 68.3744 40.1523 67.6401 37.8Z" fill="white"/>
<path d="M67.6401 37.8L56.9159 3.44919C56.2753 1.39729 54.3753 0 52.2257 0C49.6093 0 47.4518 2.05036 47.3186 4.66341L46.0103 30.3392C45.9639 31.2511 46.0739 32.1643 46.3356 33.0391L52.1572 52.4999C52.6638 54.1934 54.2218 55.3535 55.9894 55.3535H61.4009C63.1419 55.3535 64.683 54.2274 65.2119 52.5686L67.6183 45.0214C68.3668 42.6736 68.3744 40.1523 67.6401 37.8Z" fill="#EF305E"/>
</g>
<path d="M41.8837 0H52.8983C55.5955 0 57.5196 2.61489 56.7172 5.18995L41.8362 52.9475C41.3154 54.619 39.7681 55.7576 38.0173 55.7576H27.0028C24.3056 55.7576 22.3815 53.1427 23.1839 50.5676L38.0648 2.81005C38.5857 1.13856 40.133 0 41.8837 0Z" fill="#EF305E"/>
<path d="M36.0096 46.6474L55.0982 38.5089C56.139 38.0652 57.3552 38.3385 57.5034 39.0493L58.1144 41.9807C58.2096 42.4376 57.8192 42.9407 57.1493 43.2246L38.0513 51.3177C37.011 51.7586 35.799 51.4846 35.6512 50.7752L35.0496 47.8891C34.9547 47.4336 35.3426 46.9317 36.0096 46.6474Z" fill="#EF305E"/>
<path d="M85.925 22L92 4.125H96.6L102.675 22H98.175L97.075 18.25H91.5L90.425 22H85.925ZM92.525 14.75H96.05L95.05 11.275L94.325 8.2H94.275C94.0084 9.5 93.7667 10.525 93.55 11.275L92.525 14.75Z" fill="white"/>
<path d="M103.777 22L105.252 4.125H110.002L112.602 11.675L113.502 14.625H113.552C113.885 13.425 114.185 12.4417 114.452 11.675L117.052 4.125H121.802L123.252 22H118.877L118.327 13.95C118.293 13.55 118.277 13.1 118.277 12.6C118.277 12.1 118.285 11.7 118.302 11.4L118.327 10.95H118.277C117.877 12.2 117.543 13.2 117.277 13.95L115.402 19.125H111.652L109.777 13.95L108.777 10.95H108.727C108.793 12.05 108.793 13.05 108.727 13.95L108.177 22H103.777Z" fill="white"/>
<path d="M125.377 13.025C125.377 10.4083 126.261 8.225 128.027 6.475C129.811 4.70833 132.052 3.825 134.752 3.825C137.536 3.825 139.827 4.61666 141.627 6.2L139.527 9.475C139.011 9.00833 138.344 8.61666 137.527 8.3C136.711 7.98333 135.927 7.825 135.177 7.825C133.411 7.825 132.086 8.30833 131.202 9.275C130.336 10.225 129.902 11.425 129.902 12.875C129.902 14.525 130.394 15.8417 131.377 16.825C132.377 17.8083 133.594 18.3 135.027 18.3C136.327 18.3 137.536 17.8667 138.652 17V15.625H136.127V11.9H142.527V22H138.877V21.5L138.902 20.75H138.852C138.319 21.2167 137.619 21.5917 136.752 21.875C135.902 22.1583 135.036 22.3 134.152 22.3C131.752 22.3 129.686 21.4583 127.952 19.775C126.236 18.0917 125.377 15.8417 125.377 13.025Z" fill="white"/>
<path d="M86.925 43.025C86.925 40.3917 87.8 38.2 89.55 36.45C91.3167 34.7 93.5667 33.825 96.3 33.825C97.55 33.825 98.7667 34.0417 99.95 34.475C101.133 34.8917 102.15 35.5167 103 36.35L100.975 39.65C100.375 39.1167 99.6667 38.6833 98.85 38.35C98.05 38 97.2667 37.825 96.5 37.825C94.8334 37.825 93.575 38.325 92.725 39.325C91.875 40.3083 91.45 41.5083 91.45 42.925C91.45 44.375 91.8834 45.6333 92.75 46.7C93.6334 47.7667 94.8834 48.3 96.5 48.3C98.2 48.3 99.7834 47.5667 101.25 46.1L103.5 49.3C101.567 51.3 99.1667 52.3 96.3 52.3C93.4667 52.3 91.1917 51.4333 89.475 49.7C87.775 47.95 86.925 45.725 86.925 43.025Z" fill="white"/>
<path d="M103.772 52L109.847 34.125H114.447L120.522 52H116.022L114.922 48.25H109.347L108.272 52H103.772ZM110.372 44.75H113.897L112.897 41.275L112.172 38.2H112.122C111.855 39.5 111.613 40.525 111.397 41.275L110.372 44.75Z" fill="white"/>
<path d="M124.782 52V37.875H119.357V34.125H134.582V37.875H129.157V52H124.782Z" fill="white"/>
<path d="M133.41 52L139.485 34.125H144.085L150.16 52H145.66L144.56 48.25H138.985L137.91 52H133.41ZM140.01 44.75H143.535L142.535 41.275L141.81 38.2H141.76C141.494 39.5 141.252 40.525 141.035 41.275L140.01 44.75Z" fill="white"/>
<path d="M151.962 52V34.125H156.337V48.25H163.637V52H151.962Z" fill="white"/>
<path d="M164.317 42.95C164.317 40.35 165.192 38.1833 166.942 36.45C168.692 34.7 170.934 33.825 173.667 33.825C176.4 33.825 178.642 34.7 180.392 36.45C182.142 38.1833 183.017 40.35 183.017 42.95C183.017 45.6167 182.142 47.8417 180.392 49.625C178.642 51.4083 176.4 52.3 173.667 52.3C170.934 52.3 168.692 51.4083 166.942 49.625C165.192 47.8417 164.317 45.6167 164.317 42.95ZM168.842 42.95C168.842 44.4833 169.292 45.7583 170.192 46.775C171.109 47.7917 172.267 48.3 173.667 48.3C175.067 48.3 176.217 47.7917 177.117 46.775C178.034 45.7583 178.492 44.4833 178.492 42.95C178.492 41.4833 178.034 40.2667 177.117 39.3C176.217 38.3167 175.067 37.825 173.667 37.825C172.267 37.825 171.109 38.3167 170.192 39.3C169.292 40.2667 168.842 41.4833 168.842 42.95Z" fill="white"/>
<path d="M184.85 43.025C184.85 40.4083 185.733 38.225 187.5 36.475C189.283 34.7083 191.525 33.825 194.225 33.825C197.008 33.825 199.3 34.6167 201.1 36.2L199 39.475C198.483 39.0083 197.817 38.6167 197 38.3C196.183 37.9833 195.4 37.825 194.65 37.825C192.883 37.825 191.558 38.3083 190.675 39.275C189.808 40.225 189.375 41.425 189.375 42.875C189.375 44.525 189.867 45.8417 190.85 46.825C191.85 47.8083 193.067 48.3 194.5 48.3C195.8 48.3 197.008 47.8667 198.125 47V45.625H195.6V41.9H202V52H198.35V51.5L198.375 50.75H198.325C197.792 51.2167 197.092 51.5917 196.225 51.875C195.375 52.1583 194.508 52.3 193.625 52.3C191.225 52.3 189.158 51.4583 187.425 49.775C185.708 48.0917 184.85 45.8417 184.85 43.025Z" fill="white"/>
<path d="M204.936 45.425V34.125H209.311V45.425C209.311 46.3417 209.586 47.05 210.136 47.55C210.702 48.05 211.461 48.3 212.411 48.3C213.361 48.3 214.111 48.05 214.661 47.55C215.227 47.05 215.511 46.3417 215.511 45.425V34.125H219.886V45.425C219.886 47.4583 219.202 49.1167 217.836 50.4C216.469 51.6667 214.669 52.3 212.436 52.3C210.186 52.3 208.369 51.6667 206.986 50.4C205.619 49.1167 204.936 47.4583 204.936 45.425Z" fill="white"/>
<path d="M223.446 52V34.125H234.646V37.875H227.821V41.125H233.271V44.875H227.821V48.25H234.996V52H223.446Z" fill="white"/>
</g>
<defs>
<filter id="filter0_d_18_18" x="42" y="0" width="26.1853" height="58.3535" filterUnits="userSpaceOnUse" color-interpolation-filters="sRGB">
<feFlood flood-opacity="0" result="BackgroundImageFix"/>
<feColorMatrix in="SourceAlpha" type="matrix" values="0 0 0 0 0 0 0 0 0 0 0 0 0 0 0 0 0 0 127 0" result="hardAlpha"/>
<feOffset dx="-4" dy="3"/>
<feComposite in2="hardAlpha" operator="out"/>
<feColorMatrix type="matrix" values="0 0 0 0 0.904167 0 0 0 0 0.892865 0 0 0 0 0.892865 0 0 0 0.4 0"/>
<feBlend mode="normal" in2="BackgroundImageFix" result="effect1_dropShadow_18_18"/>
<feBlend mode="normal" in="SourceGraphic" in2="effect1_dropShadow_18_18" result="shape"/>
</filter>
<clipPath id="clip0_18_18">
<rect width="269" height="56" fill="white"/>
</clipPath>
</defs>
</svg>
